<svg xmlns="http://www.w3.org/2000/svg" xmlns:xlink="http://www.w3.org/1999/xlink" version="1.2" width="115.5px" height="112.277px" viewBox="0 0 115.5 112.277" baseProfile="tiny-ps">
  <title>Piducation.com</title>
  <circle cx="57.75" cy="56.366" r="55.569" stroke-miterlimit="10" stroke="#FFFF00" fill="#FFFF99"/>
  <g id="Layer_1_1_"/>
  <g>
    <path d="M86.818,41.818l-0.805,11.648c2.483-3.902,4.559-2.449,4.559-2.449l-0.051-9.219   C87.854,42.845,86.818,41.818,86.818,41.818z M80.287,30.623c-1.578-1.66-7.23-6.039-23.156-5.949   c-15.947,0.086-21.529,4.516-23.09,6.199l-0.008-1.586c0,0,4.525-6.884,23.086-6.977c18.555-0.102,23.16,6.727,23.16,6.727   L80.287,30.623z M57.236,44.509c-11.656,0.066-21.105-1.215-21.117-2.848c-0.008-1.634,9.43-3.004,21.086-3.066   c11.66-0.063,21.109,1.211,21.113,2.839C78.33,43.064,68.896,44.448,57.236,44.509z M89.24,37.399l-0.043-7.522l7.234-4.047   L57.025,5.044l-39.191,21.2l15.711,9.023l0.031,5.359l0.004,0.43l0.146-0.07c-0.168,0.228-0.275,0.457-0.271,0.688   c0.012,2.637,10.656,4.723,23.789,4.652c13.133-0.071,23.758-2.277,23.75-4.91c0-0.23-0.121-0.453-0.285-0.685l0.145,0.067v-0.426   l-0.026-5.383l6.813-4.242l0.034,6.66c-0.75,0.323-1.271,1.063-1.266,1.922c0.008,1.133,0.926,2.047,2.065,2.039   c1.148-0.009,2.055-0.934,2.051-2.059C90.518,38.448,89.994,37.717,89.24,37.399z" fill="#010002"/>
    <path d="M53.645,62.668h12.259c-3.575,16.007-4.6,20.772-4.6,28.097c0,1.531,0,4.426,0.853,8.172   c1.19,4.771,2.387,5.449,3.918,5.449c2.215,0,4.598-1.871,4.598-4.086c0-0.68,0-0.852-0.68-2.383   c-3.238-7.836-3.238-14.988-3.238-18.051c0-5.621,0.853-11.582,2.043-17.199h12.263c1.535,0,5.448,0,5.448-3.746   c0-2.555-2.383-2.555-4.426-2.555H45.641c-2.387,0-6.473,0-11.242,5.105c-3.746,4.257-6.641,9.199-6.641,9.707   c0,0.172,0,1.195,1.363,1.195c0.852,0,1.02-0.514,1.703-1.363c5.277-8.344,11.578-8.344,13.793-8.344h6.129   c-3.402,13.108-9.195,26.222-13.793,36.101c-0.852,1.703-0.852,1.871-0.852,2.724c0,2.043,1.703,2.895,3.066,2.895   c3.234,0,4.086-3.063,5.449-6.979c1.531-5.109,1.531-5.277,2.895-10.728L53.645,62.668z"/>
    <path d="M56.154,42.186c-0.156,0.031-0.688-0.207-0.789-0.285l-0.049-0.083l0.006-0.442   c-0.012-0.172-0.008-0.356-0.016-0.517l-0.076-0.434l0.37,0.445c0.539,0.479,1.27,0.586,1.938,0.371   c0.414-0.13,0.828-0.461,1.065-0.824l0.398-0.808l0.018,0.452c0.039,0.156-0.006,0.697,0,1.054v0.683l-0.487,0.174   c-0.57,0.215-1.119,0.336-1.678,0.34c-0.238,0-0.402-0.063-0.602-0.105L56.154,42.186z" fill="#FFD400"/>
    <path d="M33.979,29.875l-0.004-0.588l1.043-1.119c2.98-2.817,8.131-4.664,14.85-5.496   c2.527-0.313,4.117-0.366,7.656-0.362c4.633,0,7.57,0.19,10.938,0.878c4.988,1.017,8.722,2.755,11.08,5.029l0.742,0.82l0.008,1.586   l-0.576-0.551c-0.78-0.703-2.021-1.492-3.454-2.188c-3.457-1.668-7.625-2.634-13.58-3.103c-1.947-0.152-8.411-0.094-10.38,0.059   c-8.215,0.641-13.75,2.262-17.326,5.133l-0.992,0.898L33.979,29.875z" fill="#000076"/>
    <path d="M78.232,41.458c0,2.096-9.937,3.198-21.415,3.198s-20.785-0.898-20.785-2.995   c0-2.098,9.307-3.662,20.785-3.662S78.232,39.361,78.232,41.458z" fill="#FFFF00"/>
    <path d="M78.656,41.56c0,2.311-10.137,3.524-21.844,3.524c-11.711,0-21.201-0.99-21.201-3.3   c0-2.311,9.49-4.035,21.201-4.035C68.52,37.75,78.656,39.25,78.656,41.56z" fill="#FFFF00"/>
  </g>
</svg>
