<svg xmlns="http://www.w3.org/2000/svg" xmlns:xlink="http://www.w3.org/1999/xlink" version="1.2" width="124.667px" height="124.991px" viewBox="0 0 124.667 124.991" baseProfile="tiny-ps">
  <title>LogoAdd</title>
  <g id="Layer_1"/>
  <g id="Layer_2">
    <g>
      <defs>
        
        
        
       
        
      </defs>
      
     
     
      
        <circle cx="62.446" cy="62.7" r="61.375" fill="#FCEE21"/>
        <linearGradient id="SVGID_2_" gradientUnits="userSpaceOnUse" x1="62.4453" y1="124.0747" x2="62.4453" y2="1.3252">
          <stop offset="0" stop-color="#C58B02"/>
          <stop offset="0.5" stop-color="#B37D00"/>
          <stop offset="0.5661" stop-color="#B88101"/>
          <stop offset="0.7518" stop-color="#C28902"/>
          <stop offset="1" stop-color="#C58B02"/>
        </linearGradient>
        <circle cx="62.446" cy="62.7" r="61.375" fill="url(#SVGID_2_)"/>
        <linearGradient id="SVGID_3_" gradientUnits="userSpaceOnUse" x1="62.4453" y1="1.3247" x2="62.4453" y2="124.0752">
          <stop offset="0" stop-opacity="0.77" stop-color="#FFFFFF"/>
          <stop offset="0.2033" stop-opacity="0.65" stop-color="#FFFFFF"/>
          <stop offset="0.3448" stop-opacity="0.65" stop-color="#FFFFFF"/>
          <stop offset="0.3462" stop-opacity="0.65" stop-color="#FFFFFF"/>
          <stop offset="0.511" stop-opacity="0" stop-color="#FFFFFF"/>
          <stop offset="0.512" stop-opacity="3.323269e-004" stop-color="#FEFEFC"/>
          <stop offset="0.5319" stop-opacity="0.0068" stop-color="#EDE4CF"/>
          <stop offset="0.5533" stop-opacity="0.0138" stop-color="#DDCDA6"/>
          <stop offset="0.5773" stop-opacity="0.0217" stop-color="#CFB780"/>
          <stop offset="0.6035" stop-opacity="0.0303" stop-color="#C2A560"/>
          <stop offset="0.6324" stop-opacity="0.0397" stop-color="#B89644"/>
          <stop offset="0.6651" stop-opacity="0.0504" stop-color="#AF892E"/>
          <stop offset="0.7032" stop-opacity="0.0629" stop-color="#A9801D"/>
          <stop offset="0.7503" stop-opacity="0.0783" stop-color="#A47912"/>
          <stop offset="0.8165" stop-opacity="0.0999" stop-color="#A2750B"/>
          <stop offset="1" stop-opacity="0.16" stop-color="#A17409"/>
        </linearGradient>
        <circle cx="62.446" cy="62.7" r="61.375" fill="url(#SVGID_3_)"/>
        
          <path d="M62.445,123.359c-22.664-0.256-43.131-12.634-53.957-32.537      c-11.967-22.002-7.961-49.341,8.154-68.04C31.517,5.525,55.419-1.387,77.353,3.882c21.694,5.211,38.644,22.935,44.273,44.273      C131.675,86.244,100.665,122.928,62.445,123.359c-0.008,0.001-0.003,0.727,0,0.727c22.664-0.256,43.131-12.635,53.957-32.538      c8.356-15.363,9.122-34.176,3.241-50.481C112.061,20.039,92.6,5.101,70.714,1.873c-22.47-3.314-44.948,7.107-58.112,25.296      C0.722,43.583-1.552,65.479,5.247,84.333c8.604,23.856,32.151,39.469,57.198,39.752      C62.448,124.085,62.453,123.36,62.445,123.359z" fill="#FFFFFF"/>
        </g>
        <circle cx="62.446" cy="62.7" r="61.375" stroke-miterlimit="1" stroke-width="0.5878" stroke="#E29E01" fill="none"/>
        
          <path d="M123.82,62.657c-0.268,23.731-13.744,45.032-35.065,55.448      c-20.645,10.086-45.691,6.825-63.813-6.879C4.813,96.005-3.264,69.189,3.634,45.151C9.828,23.569,28.365,7.327,50.076,2.632      c37.784-8.171,73.317,22.194,73.744,60.11C123.82,62.788,123.821,62.671,123.82,62.657c-0.24-21.411-11.146-40.921-29.27-52.335      c-19.441-12.245-44.723-11.699-64.211,0C-5.974,32.12-8.009,84.19,23.913,110.535c18.809,15.521,45.767,17.559,67.206,6.505      c20.161-10.396,32.449-31.865,32.701-54.297C123.821,62.728,123.82,62.611,123.82,62.657z" fill="#BD8500"/>
        </g>
      </g>
      <path d="M92.131,48.393l-0.805,11.648c2.484-3.902,4.559-2.449,4.559-2.449l-0.051-9.219    C93.166,49.42,92.131,48.393,92.131,48.393z M85.6,37.197c-1.578-1.66-7.23-6.039-23.156-5.949    c-15.947,0.086-21.529,4.516-23.09,6.199l-0.008-1.586c0,0,4.525-6.883,23.086-6.976c18.555-0.102,23.16,6.726,23.16,6.726    L85.6,37.197z M62.549,51.084c-11.656,0.066-21.105-1.215-21.117-2.848c-0.008-1.633,9.43-3.004,21.086-3.066    c11.66-0.063,21.109,1.211,21.113,2.839C83.643,49.639,74.209,51.021,62.549,51.084z M94.553,43.974l-0.043-7.523l7.234-4.047    L62.338,11.619L23.147,32.818l15.71,9.024l0.031,5.359l0.004,0.43l0.146-0.07c-0.168,0.227-0.275,0.457-0.271,0.688    c0.012,2.637,10.656,4.723,23.789,4.652s23.758-2.277,23.75-4.91c0-0.23-0.121-0.453-0.285-0.684l0.145,0.067v-0.426l-0.027-5.383    l6.813-4.242l0.035,6.66c-0.75,0.324-1.27,1.063-1.266,1.922c0.008,1.133,0.926,2.047,2.066,2.039    c1.148-0.008,2.055-0.933,2.051-2.058C95.83,45.021,95.307,44.292,94.553,43.974z" fill="#010002"/>
      <path d="M58.957,69.243h12.26c-3.576,16.007-4.6,20.773-4.6,28.097c0,1.531,0,4.426,0.852,8.172    c1.191,4.77,2.387,5.449,3.918,5.449c2.215,0,4.598-1.871,4.598-4.086c0-0.68,0-0.852-0.68-2.383    c-3.238-7.836-3.238-14.988-3.238-18.051c0-5.621,0.852-11.582,2.043-17.199h12.262c1.535,0,5.449,0,5.449-3.746    c0-2.555-2.383-2.555-4.426-2.555H50.953c-2.387,0-6.473,0-11.242,5.106c-3.746,4.257-6.641,9.199-6.641,9.707    c0,0.172,0,1.195,1.363,1.195c0.852,0,1.02-0.513,1.703-1.363c5.277-8.344,11.578-8.344,13.793-8.344h6.129    c-3.402,13.108-9.195,26.222-13.793,36.101c-0.852,1.703-0.852,1.871-0.852,2.723c0,2.043,1.703,2.895,3.066,2.895    c3.234,0,4.086-3.063,5.449-6.98c1.531-5.109,1.531-5.277,2.895-10.727L58.957,69.243z"/>
      <path d="M92.97,48.761c-0.156,0.031-0.688-0.207-0.789-0.285    l-0.05-0.083l0.006-0.443c-0.012-0.172-0.008-0.356-0.016-0.516L92.045,47l0.37,0.445c0.539,0.48,1.27,0.586,1.938,0.371    c0.414-0.129,0.828-0.461,1.066-0.824l0.397-0.807l0.018,0.452c0.039,0.156-0.005,0.697,0,1.053v0.683l-0.487,0.174    c-0.57,0.215-1.12,0.336-1.679,0.34c-0.238,0-0.401-0.063-0.601-0.106L92.97,48.761z" fill="#FFD400" fill-rule="evenodd"/>
      <path d="M39.291,36.45l-0.004-0.588l1.044-1.119    c2.979-2.817,8.13-4.664,14.849-5.496c2.527-0.313,4.117-0.366,7.656-0.362c4.633,0,7.57,0.19,10.938,0.878    c4.988,1.016,8.722,2.755,11.081,5.029l0.742,0.82l0.008,1.586l-0.577-0.551c-0.781-0.703-2.019-1.492-3.455-2.187    c-3.457-1.668-7.624-2.634-13.58-3.103c-1.946-0.152-8.41-0.093-10.379,0.059c-8.215,0.641-13.75,2.262-17.326,5.133l-0.991,0.898    L39.291,36.45z" fill="#000076" fill-rule="evenodd"/>
      <g>
        <radialGradient id="SVGID_4_" cx="62.7373" cy="48.2407" r="15.0198" gradientUnits="userSpaceOnUse">
          <stop offset="0" stop-color="#DC9900"/>
          <stop offset="0.618" stop-color="#CA8C00"/>
          <stop offset="0.6292" stop-color="#D49500"/>
          <stop offset="0.9831" stop-color="#B57C00"/>
        </radialGradient>
        <ellipse cx="62.737" cy="48.239" rx="21.027" ry="3.008" fill="url(#SVGID_4_)"/>
        <linearGradient id="SVGID_5_" gradientUnits="userSpaceOnUse" x1="62.7373" y1="51.2471" x2="62.7373" y2="45.2349">
          <stop offset="0" stop-opacity="0.22" stop-color="#F6E134"/>
          <stop offset="0.5" stop-color="#F0B044"/>
          <stop offset="0.5948" stop-opacity="0.835" stop-color="#F2C43D"/>
          <stop offset="0.7064" stop-opacity="0.6408" stop-color="#F4D438"/>
          <stop offset="0.8322" stop-opacity="0.422" stop-color="#F6DE35"/>
          <stop offset="1" stop-opacity="0.13" stop-color="#F6E134"/>
        </linearGradient>
        <ellipse cx="62.737" cy="48.239" rx="21.027" ry="3.008" fill="url(#SVGID_5_)"/>
        <radialGradient id="SVGID_6_" cx="62.7373" cy="48.2407" r="15.0198" gradientUnits="userSpaceOnUse">
          <stop offset="0" stop-opacity="0" stop-color="#F6E134"/>
          <stop offset="0.3328" stop-opacity="0.2329" stop-color="#F4D538"/>
          <stop offset="0.9396" stop-opacity="0.6577" stop-color="#F0B443"/>
          <stop offset="1" stop-opacity="0.7" stop-color="#F0B044"/>
        </radialGradient>
        <ellipse cx="62.737" cy="48.239" rx="21.027" ry="3.008" fill="url(#SVGID_6_)"/>
        <linearGradient id="SVGID_7_" gradientUnits="userSpaceOnUse" x1="62.7373" y1="45.2349" x2="62.7373" y2="51.2471">
          <stop offset="0" stop-opacity="0.77" stop-color="#FFFFFF"/>
          <stop offset="0.45" stop-opacity="0" stop-color="#FFFFFF"/>
          <stop offset="0.4702" stop-opacity="0.0059" stop-color="#FCF2DF"/>
          <stop offset="0.4977" stop-opacity="0.0139" stop-color="#FAE2BB"/>
          <stop offset="0.5288" stop-opacity="0.0229" stop-color="#F7D59B"/>
          <stop offset="0.5632" stop-opacity="0.0329" stop-color="#F5C97F"/>
          <stop offset="0.602" stop-opacity="0.0442" stop-color="#F3C069"/>
          <stop offset="0.6473" stop-opacity="0.0574" stop-color="#F2B958"/>
          <stop offset="0.7033" stop-opacity="0.0737" stop-color="#F1B44D"/>
          <stop offset="0.7819" stop-opacity="0.0965" stop-color="#F0B146"/>
          <stop offset="1" stop-opacity="0.16" stop-color="#F0B044"/>
        </linearGradient>
        <ellipse cx="62.737" cy="48.239" rx="21.027" ry="3.008" fill="url(#SVGID_7_)"/>
        
          <path d="M62.737,50.837c-4.835-0.031-9.651-0.227-14.451-0.834c-1.824-0.231-4.959-0.373-6.346-1.8      c-0.2-0.207,4.736-1.499,5.118-1.564c5.15-0.888,10.469-0.961,15.679-0.993c4.85-0.03,9.712,0.217,14.524,0.823      c1.798,0.226,4.925,0.368,6.273,1.803c0.188,0.2-4.8,1.493-5.185,1.559C73.221,50.714,67.928,50.804,62.737,50.837      c-0.005,0-0.003,0.5,0,0.5c2.066-0.013,20.87,0.459,20.87-3.098c0-3.601-18.803-3.081-20.87-3.094      c-2.063-0.013-20.87-0.491-20.87,3.094c0,3.558,18.804,3.085,20.87,3.098C62.74,51.337,62.742,50.837,62.737,50.837z" fill="#FFFFFF"/>
        </g>
        <ellipse cx="62.737" cy="48.239" rx="21.027" ry="3.008" stroke-miterlimit="1" stroke-width="0.25" stroke="#F0B044" fill="none"/>
       
          <path d="M83.765,47.614c-0.548,1.743-4.767,1.91-6.159,2.127c-4.898,0.763-9.922,0.85-14.868,0.881      c-4.965,0.032-9.945-0.234-14.868-0.881c-1.383-0.182-5.619-0.406-6.159-2.127c0,0.417,0,0.833,0,1.25      c0.548-1.742,4.767-1.908,6.159-2.125c4.898-0.762,9.922-0.848,14.868-0.879c4.965-0.032,9.945,0.233,14.868,0.879      c1.383,0.182,5.619,0.404,6.159,2.125C83.646,48.487,83.885,47.996,83.765,47.614c-0.624-1.985-5.921-2.093-7.479-2.298      c-6.319-0.829-12.781-0.806-19.138-0.599c-2.338,0.076-15.443-0.292-15.443,3.521c0,3.834,13.099,3.417,15.443,3.526      c5.9,0.273,11.837,0.1,17.717-0.443c1.718-0.159,8.206-0.246,8.9-2.458C83.885,48.482,83.646,47.99,83.765,47.614z" fill="#F6E134"/>
        </g>
      </g>
      <path d="M92.956,48.785    c-0.155,0.029-0.683-0.197-0.782-0.27l-0.05-0.08l0.006-0.421c-0.012-0.163-0.008-0.337-0.016-0.49l-0.076-0.412l0.368,0.422    c0.536,0.456,1.262,0.557,1.925,0.353c0.412-0.123,0.823-0.438,1.062-0.782l0.395-0.766l0.017,0.429    c0.039,0.148-0.004,0.661,0,0.999v0.648l-0.483,0.166c-0.568,0.204-1.114,0.319-1.669,0.322c-0.236,0-0.399-0.06-0.598-0.101    L92.956,48.785z" fill="#FFD400" fill-rule="evenodd"/>
    </g>
  </g>
</svg>
